# xmcd
# Copyright (C) 1995-1998 Ti Kan
#
# Track frame offsets:
#       150
#       11537
#       12572
#       137169
#
# Disc length: 3506 seconds
#
# Revision: 0
# Processed by: cddbd v1.5.2PL0 Copyright (c) Steve Scherf et al.
# Submitted via: CD-Import v1.0
#
DISCID=2c0db004
DTITLE=Dr Dolittle - 
DYEAR=1900
DGENRE=
TTITLE0=Anmodi Dr Dolittle
TTITLE1=Abmodi Dr Dolittle
TTITLE2=Dr Dolittle1.1
TTITLE3=Dr Dolittle1.2
EXTD=
EXTT0=
EXTT1=
EXTT2=
EXTT3=
PLAYORDER=
